# Blender v2.92.0 OBJ File: 'scene_construction.blend'
# www.blender.org
o Cube
v 3.705385 1.186039 0.755791
v 2.056272 1.186039 1.044234
v 3.524880 1.186039 -0.276207
v 1.875768 1.186039 0.012236
v 1.639933 2.586470 -0.390462
v 1.646145 2.594996 -0.354949
v 3.610025 2.586470 -0.735047
v 3.616236 2.594996 -0.699533
v 1.697379 1.176723 -0.062029
v 1.703590 1.185250 -0.026516
v 3.667470 1.176723 -0.406613
v 3.673682 1.185250 -0.371100
v 3.662735 1.292937 -0.433688
v 1.692643 1.292937 -0.089104
v 1.698855 1.301463 -0.053590
v 3.668946 1.301463 -0.398175
v 1.952709 1.186039 1.397769
v 1.703120 1.186039 -0.029207
v 3.922801 1.186039 1.053185
v 3.673211 1.186039 -0.373791
v 3.192630 1.186039 1.153323
v 3.144467 1.186039 0.877961
v 2.678304 1.186039 1.243283
v 2.630141 1.186039 0.967921
v 3.156956 1.186039 0.851716
v 3.213882 1.186039 1.177180
v 2.666410 1.186039 1.272937
v 2.609484 1.186039 0.947473
v 3.872616 1.094255 1.019368
v 3.922801 1.136572 1.053185
v 1.988436 1.094255 1.348926
v 1.952709 1.136572 1.397769
v 3.673211 1.136572 -0.373791
v 3.637485 1.094255 -0.324948
v 1.753304 1.094255 0.004610
v 1.703120 1.136572 -0.029207
vt 0.833395 0.122767
vt 0.833395 0.086714
vt 0.905277 0.050597
vt 0.624865 0.793498
vt 0.656912 0.663759
vt 0.656912 0.793498
vt 0.764468 0.551632
vt 0.796546 0.453963
vt 0.796546 0.551632
vt 0.716877 0.249824
vt 0.624865 0.373906
vt 0.624865 0.249824
vt 0.684411 0.536702
vt 0.684411 0.583702
vt 0.652460 0.583702
vt 0.040028 0.040028
vt 0.169768 0.115223
vt 0.040028 0.115223
vt 0.462186 0.120882
vt 0.459620 0.954504
vt 0.459620 0.115414
vt 0.379564 0.741576
vt 0.249824 0.333347
vt 0.379564 0.333347
vt 0.169768 0.957841
vt 0.040028 0.952193
vt 0.169768 0.952193
vt 0.379564 0.045760
vt 0.249824 0.040028
vt 0.379564 0.040028
vt 0.542243 0.884586
vt 0.544809 0.954504
vt 0.542243 0.959971
vt 0.542243 0.045496
vt 0.544809 0.879118
vt 0.379564 0.120654
vt 0.249824 0.045760
vt 0.462186 0.045496
vt 0.459620 0.040028
vt 0.645895 0.159199
vt 0.722534 0.169768
vt 0.624865 0.169768
vt 0.645895 0.050597
vt 0.624865 0.086714
vt 0.624865 0.040028
vt 0.717777 0.050597
vt 0.717777 0.159199
vt 0.722535 0.040028
vt 0.851355 0.131938
vt 0.885225 0.150785
vt 0.851355 0.150785
vt 0.624865 0.122767
vt 0.663909 0.096106
vt 0.683848 0.095014
vt 0.682756 0.096106
vt 0.663909 0.129977
vt 0.662818 0.095014
vt 0.683848 0.131068
vt 0.682756 0.129977
vt 0.662818 0.131068
vt 0.684183 0.666587
vt 0.823832 0.666587
vt 0.796317 0.761428
vt 0.796317 0.663759
vt 0.824060 0.456792
vt 0.624865 0.456791
vt 0.624865 0.580873
vt 0.764239 0.761428
vt 0.833395 0.050597
vt 0.905277 0.159199
vt 0.833395 0.159199
vt 0.624865 0.663759
vt 0.764468 0.453963
vt 0.716877 0.373906
vt 0.652460 0.453963
vt 0.684411 0.453963
vt 0.684411 0.500648
vt 0.169768 0.040028
vt 0.462186 0.959972
vt 0.249824 0.741576
vt 0.040028 0.957841
vt 0.544809 0.040029
vt 0.249824 0.120654
vt 0.645895 0.086714
vt 0.885225 0.131938
vt 0.645895 0.122767
vt 0.684183 0.790669
vt 0.823832 0.758599
vt 0.824060 0.548804
vt 0.764239 0.663759
vn 0.0000 1.0000 0.0000
vn -0.1723 0.0000 -0.9850
vn -0.9850 0.0000 0.1723
vn 0.0000 -1.0000 0.0000
vn 0.1723 0.0000 0.9850
vn -0.1677 -0.2302 -0.9586
vn 0.1677 0.2302 0.9586
vn -0.0397 0.9732 -0.2267
vn 0.0397 -0.9732 0.2267
vn 0.9850 0.0000 -0.1723
vn -0.1223 -0.7041 -0.6995
vn 0.6860 -0.7176 -0.1200
vn -0.6860 -0.7176 0.1200
vn 0.1223 -0.7041 0.6995
s off
f 28/1/1 25/2/1 3/3/1
f 18/4/2 33/5/2 36/6/2
f 17/7/3 36/8/3 32/9/3
f 29/10/4 35/11/4 34/12/4
f 27/13/5 17/14/5 32/15/5
f 11/16/6 14/17/6 13/18/6
f 15/19/3 5/20/3 14/21/3
f 8/22/7 15/23/7 16/24/7
f 6/25/8 7/26/8 5/27/8
f 12/28/9 9/29/9 11/30/9
f 13/31/10 12/32/10 11/33/10
f 7/34/10 16/35/10 13/31/10
f 16/36/7 10/37/7 12/28/7
f 10/38/3 14/21/3 9/39/3
f 13/18/6 5/27/6 7/26/6
f 2/40/1 18/41/1 17/42/1
f 1/43/1 26/44/1 19/45/1
f 3/46/1 18/41/1 4/47/1
f 1/43/1 20/48/1 3/46/1
f 22/49/1 23/50/1 21/51/1
f 27/52/1 2/40/1 17/42/1
f 21/53/1 25/54/1 22/55/1
f 23/56/1 26/57/1 21/53/1
f 22/55/1 28/58/1 24/59/1
f 23/56/1 28/58/1 27/60/1
f 34/61/11 36/6/11 33/5/11
f 29/62/12 33/63/12 30/64/12
f 35/65/13 32/9/13 36/8/13
f 29/66/14 32/15/14 31/67/14
f 20/68/10 30/64/10 33/63/10
f 25/2/1 1/69/1 3/3/1
f 3/3/1 4/70/1 28/1/1
f 4/70/1 2/71/1 28/1/1
f 18/4/2 20/72/2 33/5/2
f 17/7/3 18/73/3 36/8/3
f 29/10/4 31/74/4 35/11/4
f 32/15/5 30/75/5 27/13/5
f 30/75/5 19/76/5 26/77/5
f 26/77/5 27/13/5 30/75/5
f 11/16/6 9/78/6 14/17/6
f 15/19/3 6/79/3 5/20/3
f 8/22/7 6/80/7 15/23/7
f 6/25/8 8/81/8 7/26/8
f 12/28/9 10/37/9 9/29/9
f 13/31/10 16/35/10 12/32/10
f 7/34/10 8/82/10 16/35/10
f 16/36/7 15/83/7 10/37/7
f 10/38/3 15/19/3 14/21/3
f 13/18/6 14/17/6 5/27/6
f 2/40/1 4/47/1 18/41/1
f 1/43/1 25/84/1 26/44/1
f 3/46/1 20/48/1 18/41/1
f 1/43/1 19/45/1 20/48/1
f 22/49/1 24/85/1 23/50/1
f 27/52/1 28/86/1 2/40/1
f 21/53/1 26/57/1 25/54/1
f 23/56/1 27/60/1 26/57/1
f 22/55/1 25/54/1 28/58/1
f 23/56/1 24/59/1 28/58/1
f 34/61/11 35/87/11 36/6/11
f 29/62/12 34/88/12 33/63/12
f 35/65/13 31/89/13 32/9/13
f 29/66/14 30/75/14 32/15/14
f 20/68/10 19/90/10 30/64/10
