# Blender v2.92.0 OBJ File: 'scene_construction.blend'
# www.blender.org
o roof_Cube.011
v -8.757891 8.809818 15.734510
v 11.652944 8.809818 15.734510
v -8.757891 8.427007 15.734510
v 11.652944 8.427006 15.734510
v -8.757891 8.809819 -1.417232
v 11.652943 8.809818 -1.417233
v -8.757891 8.427008 -1.417232
v 11.652943 8.427007 -1.417233
vt 0.625000 0.000000
vt 0.375000 0.000000
vt 0.375000 0.250000
vt 0.625000 0.500000
vt 0.375000 0.500000
vt 0.375000 0.750000
vt 0.625000 0.250000
vt 0.125000 0.500000
vt 0.125000 0.750000
vt 0.625000 0.750000
vt 0.375000 1.000000
vt 0.875000 0.500000
vt 0.625000 1.000000
vt 0.875000 0.750000
vn 0.0000 0.0000 1.0000
vn -0.0000 0.0000 -1.0000
vn -0.0000 -1.0000 -0.0000
vn -1.0000 0.0000 0.0000
vn 0.0000 1.0000 0.0000
vn 1.0000 0.0000 -0.0000
s off
f 2/1/1 1/2/1 3/3/1
f 8/4/2 7/5/2 5/6/2
f 4/7/3 3/3/3 7/5/3
f 7/5/4 3/8/4 1/9/4
f 6/10/5 5/6/5 1/11/5
f 4/12/6 8/4/6 6/10/6
f 2/1/1 3/3/1 4/7/1
f 8/4/2 5/6/2 6/10/2
f 4/7/3 7/5/3 8/4/3
f 7/5/4 1/9/4 5/6/4
f 6/10/5 1/11/5 2/13/5
f 4/12/6 6/10/6 2/14/6
