# Blender v2.92.0 OBJ File: ''
# www.blender.org
o Cylinder
v 0.000000 -0.150534 -4.775010
v 0.000000 2.150534 -4.775010
v 0.931558 -0.150534 -4.683259
v 0.931558 2.150534 -4.683259
v 1.827317 -0.150534 -4.411534
v 1.827317 2.150534 -4.411534
v 2.652853 -0.150534 -3.970276
v 2.652853 2.150534 -3.970276
v 3.376442 -0.150534 -3.376442
v 3.376442 2.150534 -3.376442
v 3.970276 -0.150534 -2.652853
v 3.970276 2.150534 -2.652853
v 4.411534 -0.150534 -1.827317
v 4.411534 2.150534 -1.827317
v 4.683259 -0.150534 -0.931558
v 4.683259 2.150534 -0.931558
v 4.775010 -0.150534 -0.000000
v 4.775010 2.150534 -0.000000
v 4.683260 -0.150534 0.931558
v 4.683260 2.150534 0.931558
v 4.411534 -0.150534 1.827317
v 4.411534 2.150534 1.827317
v 3.970276 -0.150534 2.652853
v 3.970276 2.150534 2.652853
v 3.376442 -0.150534 3.376442
v 3.376442 2.150534 3.376442
v 2.652853 -0.150534 3.970276
v 2.652853 2.150534 3.970276
v 1.827317 -0.150534 4.411534
v 1.827317 2.150534 4.411534
v 0.931557 -0.150534 4.683260
v 0.931557 2.150534 4.683260
v -0.000002 -0.150534 4.775010
v -0.000002 2.150534 4.775010
v -0.931560 -0.150534 4.683259
v -0.931560 2.150534 4.683259
v -1.827319 -0.150534 4.411533
v -1.827319 2.150534 4.411533
v -2.652856 -0.150534 3.970274
v -2.652856 2.150534 3.970274
v -3.376444 -0.150534 3.376440
v -3.376444 2.150534 3.376440
v -3.970278 -0.150534 2.652851
v -3.970278 2.150534 2.652851
v -4.411536 -0.150534 1.827314
v -4.411536 2.150534 1.827314
v -4.683260 -0.150534 0.931554
v -4.683260 2.150534 0.931554
v -4.775010 -0.150534 -0.000005
v -4.775010 2.150534 -0.000005
v -4.683259 -0.150534 -0.931563
v -4.683259 2.150534 -0.931563
v -4.411532 -0.150534 -1.827322
v -4.411532 2.150534 -1.827322
v -3.970273 -0.150534 -2.652858
v -3.970273 2.150534 -2.652858
v -3.376438 -0.150534 -3.376446
v -3.376438 2.150534 -3.376446
v -2.652848 -0.150534 -3.970279
v -2.652848 2.150534 -3.970279
v -1.827311 -0.150534 -4.411537
v -1.827311 2.150534 -4.411537
v -0.931551 -0.150534 -4.683261
v -0.931551 2.150534 -4.683261
vt -1.350670 0.003568
vt -1.474048 0.436430
vt -1.474048 0.003568
vt -1.227292 0.003568
vt -1.350670 0.436430
vt -1.103914 0.003568
vt -1.227292 0.436430
vt -0.980536 0.003568
vt -1.103914 0.436430
vt -0.857158 0.003568
vt -0.980536 0.436430
vt -0.733780 0.003568
vt -0.857158 0.436430
vt -0.610402 0.003568
vt -0.733780 0.436430
vt -0.487024 0.003568
vt -0.610402 0.436430
vt -0.363646 0.003568
vt -0.487024 0.436430
vt -0.240268 0.003568
vt -0.363646 0.436430
vt -0.116890 0.003568
vt -0.240268 0.436430
vt 0.006488 0.003568
vt -0.116890 0.436430
vt 0.129866 0.003568
vt 0.006488 0.436430
vt 0.253244 0.003568
vt 0.129866 0.436430
vt 0.376622 0.003568
vt 0.253244 0.436430
vt 0.500000 0.003568
vt 0.376622 0.436430
vt 0.623378 0.003568
vt 0.500000 0.436430
vt 0.746756 0.003568
vt 0.623378 0.436430
vt 0.870134 0.003568
vt 0.746756 0.436430
vt 0.993512 0.003568
vt 0.870134 0.436430
vt 1.116890 0.003568
vt 0.993512 0.436430
vt 1.240268 0.003568
vt 1.116890 0.436430
vt 1.363646 0.003568
vt 1.240268 0.436430
vt 1.487024 0.003568
vt 1.363646 0.436430
vt 1.610402 0.003568
vt 1.487024 0.436430
vt 1.733780 0.003568
vt 1.610402 0.436430
vt 1.857158 0.003568
vt 1.733780 0.436430
vt 1.980536 0.003568
vt 1.857158 0.436430
vt 2.103914 0.003568
vt 1.980536 0.436430
vt 2.227292 0.003568
vt 2.103914 0.436430
vt 2.350670 0.003568
vt 2.227292 0.436430
vt 2.474048 0.003568
vt 2.350670 0.436430
vt 2.474048 0.436430
vn -0.0980 0.0000 0.9952
vn -0.2903 0.0000 0.9569
vn -0.4714 0.0000 0.8819
vn -0.6344 0.0000 0.7730
vn -0.7730 0.0000 0.6344
vn -0.8819 0.0000 0.4714
vn -0.9569 0.0000 0.2903
vn -0.9952 0.0000 0.0980
vn -0.9952 0.0000 -0.0980
vn -0.9569 0.0000 -0.2903
vn -0.8819 0.0000 -0.4714
vn -0.7730 0.0000 -0.6344
vn -0.6344 0.0000 -0.7730
vn -0.4714 0.0000 -0.8819
vn -0.2903 0.0000 -0.9569
vn -0.0980 0.0000 -0.9952
vn 0.0980 0.0000 -0.9952
vn 0.2903 0.0000 -0.9569
vn 0.4714 0.0000 -0.8819
vn 0.6344 0.0000 -0.7730
vn 0.7730 0.0000 -0.6344
vn 0.8819 0.0000 -0.4714
vn 0.9569 0.0000 -0.2903
vn 0.9952 0.0000 -0.0980
vn 0.9952 0.0000 0.0980
vn 0.9569 0.0000 0.2903
vn 0.8819 0.0000 0.4714
vn 0.7730 0.0000 0.6344
vn 0.6344 0.0000 0.7730
vn 0.4714 0.0000 0.8819
vn 0.2903 0.0000 0.9569
vn 0.0980 0.0000 0.9952
s off
f 3/1/1 2/2/1 1/3/1
f 5/4/2 4/5/2 3/1/2
f 7/6/3 6/7/3 5/4/3
f 9/8/4 8/9/4 7/6/4
f 11/10/5 10/11/5 9/8/5
f 13/12/6 12/13/6 11/10/6
f 15/14/7 14/15/7 13/12/7
f 17/16/8 16/17/8 15/14/8
f 19/18/9 18/19/9 17/16/9
f 21/20/10 20/21/10 19/18/10
f 23/22/11 22/23/11 21/20/11
f 25/24/12 24/25/12 23/22/12
f 27/26/13 26/27/13 25/24/13
f 29/28/14 28/29/14 27/26/14
f 31/30/15 30/31/15 29/28/15
f 33/32/16 32/33/16 31/30/16
f 35/34/17 34/35/17 33/32/17
f 37/36/18 36/37/18 35/34/18
f 39/38/19 38/39/19 37/36/19
f 41/40/20 40/41/20 39/38/20
f 43/42/21 42/43/21 41/40/21
f 45/44/22 44/45/22 43/42/22
f 47/46/23 46/47/23 45/44/23
f 49/48/24 48/49/24 47/46/24
f 51/50/25 50/51/25 49/48/25
f 53/52/26 52/53/26 51/50/26
f 55/54/27 54/55/27 53/52/27
f 57/56/28 56/57/28 55/54/28
f 59/58/29 58/59/29 57/56/29
f 61/60/30 60/61/30 59/58/30
f 63/62/31 62/63/31 61/60/31
f 1/64/32 64/65/32 63/62/32
f 3/1/1 4/5/1 2/2/1
f 5/4/2 6/7/2 4/5/2
f 7/6/3 8/9/3 6/7/3
f 9/8/4 10/11/4 8/9/4
f 11/10/5 12/13/5 10/11/5
f 13/12/6 14/15/6 12/13/6
f 15/14/7 16/17/7 14/15/7
f 17/16/8 18/19/8 16/17/8
f 19/18/9 20/21/9 18/19/9
f 21/20/10 22/23/10 20/21/10
f 23/22/11 24/25/11 22/23/11
f 25/24/12 26/27/12 24/25/12
f 27/26/13 28/29/13 26/27/13
f 29/28/14 30/31/14 28/29/14
f 31/30/15 32/33/15 30/31/15
f 33/32/16 34/35/16 32/33/16
f 35/34/17 36/37/17 34/35/17
f 37/36/18 38/39/18 36/37/18
f 39/38/19 40/41/19 38/39/19
f 41/40/20 42/43/20 40/41/20
f 43/42/21 44/45/21 42/43/21
f 45/44/22 46/47/22 44/45/22
f 47/46/23 48/49/23 46/47/23
f 49/48/24 50/51/24 48/49/24
f 51/50/25 52/53/25 50/51/25
f 53/52/26 54/55/26 52/53/26
f 55/54/27 56/57/27 54/55/27
f 57/56/28 58/59/28 56/57/28
f 59/58/29 60/61/29 58/59/29
f 61/60/30 62/63/30 60/61/30
f 63/62/31 64/65/31 62/63/31
f 1/64/32 2/66/32 64/65/32
